<?xml version="1.0" encoding="UTF-8"?>
<svg id="katman_1" data-name="katman 1" xmlns="http://www.w3.org/2000/svg" version="1.1" viewBox="0 0 841.89 595.28">
  <defs>
    <style>
      .cls-1 {
        fill: #1d63ed;
        stroke-width: 0px;
      }
    </style>
  </defs>
  <path class="cls-1" d="M262.76,283.09c-5.22-3.51-18.92-5.01-28.88-2.33-.54-9.92-5.65-18.29-15.02-25.58l-3.46-2.33-2.31,3.49c-4.54,6.89-6.45,16.07-5.78,24.42.54,5.14,2.32,10.92,5.78,15.12-12.97,7.52-24.92,5.81-77.85,5.81H53.53c-.24,11.95,1.68,34.94,16.3,53.66,1.61,2.07,3.38,4.07,5.31,5.99,11.89,11.9,29.85,20.63,56.7,20.65,40.97.04,76.07-22.11,97.42-75.65,7.03.12,25.57,1.26,34.65-16.28.22-.3,2.31-4.65,2.31-4.65l-3.46-2.33h0ZM106.86,270.75h-22.98v22.98h22.98v-22.98ZM136.54,270.75h-22.98v22.98h22.98v-22.98ZM166.23,270.75h-22.98v22.98h22.98v-22.98h0ZM195.92,270.75h-22.98v22.98h22.98v-22.98ZM77.17,270.75h-22.99v22.98h22.98v-22.98h0ZM106.86,241.73h-22.98v22.98h22.98v-22.98h0ZM136.55,241.73h-22.98v22.98h22.98v-22.98h0ZM166.24,241.73h-22.98v22.98h22.98v-22.98h0ZM166.23,212.7h-22.98v22.98h22.98v-22.98ZM787.74,346.54c0,5.97-4.69,10.65-10.78,10.65s-10.85-4.69-10.85-10.65,4.81-10.53,10.85-10.53,10.78,4.69,10.78,10.53ZM768.81,346.54c0,4.69,3.47,8.41,8.22,8.41s8.02-3.72,8.02-8.34-3.4-8.47-8.08-8.47-8.15,3.79-8.15,8.41h0ZM775.29,352.06h-2.44v-10.53c.96-.19,2.31-.32,4.04-.32,1.99,0,2.89.32,3.66.77.58.45,1.03,1.28,1.03,2.31,0,1.16-.9,2.05-2.18,2.44v.13c1.02.38,1.6,1.15,1.92,2.57.32,1.6.51,2.25.77,2.63h-2.63c-.32-.38-.52-1.35-.84-2.57-.19-1.15-.84-1.67-2.18-1.67h-1.15v4.24h0ZM775.36,346.09h1.15c1.35,0,2.44-.45,2.44-1.54,0-.96-.7-1.61-2.25-1.61-.64,0-1.09.07-1.35.14v3.01ZM374.2,240.02c-1.51-1.47-3.32-2.22-5.49-2.22s-4.04.75-5.49,2.22c-1.46,1.47-2.17,3.37-2.17,5.62v37.63c-7.47-6.17-16.09-9.29-25.89-9.29-11.4,0-21.14,4.12-29.21,12.38-8.07,8.23-12.08,18.19-12.08,29.87s4.04,21.61,12.08,29.87c8.07,8.23,17.79,12.38,29.21,12.38s21.03-4.12,29.21-12.38c8.07-8.15,12.08-18.1,12.08-29.87v-70.59c0-2.25-.74-4.14-2.25-5.62h0ZM359.02,326.4v.06c-1.35,3.2-3.19,6.01-5.52,8.4-2.33,2.42-5.08,4.31-8.21,5.73-3.16,1.42-6.51,2.11-10.1,2.11s-7.03-.7-10.19-2.11-5.88-3.31-8.18-5.7c-2.31-2.39-4.14-5.2-5.49-8.4-1.35-3.23-2.03-6.65-2.03-10.26s.69-7.04,2.03-10.26c1.35-3.23,3.19-6.01,5.49-8.4,2.31-2.39,5.05-4.28,8.18-5.7,3.16-1.42,6.54-2.11,10.19-2.11s6.95.7,10.1,2.11,5.88,3.31,8.21,5.73c2.33,2.42,4.17,5.23,5.52,8.4,1.35,3.2,2.03,6.59,2.03,10.21s-.69,7.04-2.03,10.21ZM715.37,300.01c-2-5.01-5.06-9.54-9.06-13.6l-.05-.03c-8.16-8.23-17.91-12.38-29.21-12.38s-21.14,4.12-29.22,12.38c-8.07,8.23-12.08,18.19-12.08,29.87s4.04,21.61,12.08,29.87c8.07,8.23,17.8,12.38,29.22,12.38,10.37,0,19.35-3.42,26.99-10.26,1.48-1.56,2.22-3.45,2.22-5.65s-.71-4.14-2.17-5.62c-1.45-1.47-3.29-2.22-5.49-2.22-1.92.06-3.62.7-5.08,1.98-2.31,2-4.81,3.53-7.52,4.53-2.72,1-5.68,1.5-8.92,1.5-2.86,0-5.6-.44-8.21-1.36-2.61-.92-5.05-2.17-7.22-3.81-2.2-1.64-4.09-3.59-5.71-5.9-1.62-2.28-2.86-4.81-3.68-7.59h58.4c2.16,0,3.98-.75,5.49-2.22,1.51-1.47,2.25-3.37,2.25-5.62,0-5.84-1.02-11.26-3.02-16.24h0ZM652.19,308.4c.8-2.75,2-5.28,3.62-7.59,1.62-2.28,3.54-4.25,5.74-5.9,2.22-1.64,4.64-2.89,7.3-3.81,2.66-.92,5.38-1.36,8.18-1.36s5.52.44,8.15,1.36c2.64.92,5.06,2.17,7.22,3.81,2.2,1.64,4.12,3.59,5.74,5.9,1.65,2.28,2.89,4.81,3.74,7.59h-49.7,0ZM787.13,279.29c-1.37-1.36-3.1-2.42-5.19-3.2-2.09-.78-4.36-1.31-6.86-1.61-2.47-.31-4.81-.44-6.97-.44-4.92,0-9.53.81-13.87,2.42-4.34,1.61-8.35,3.92-12.03,6.92v-1.5c0-2.17-.74-4.01-2.25-5.53-1.51-1.53-3.29-2.31-5.4-2.31s-3.98.78-5.49,2.31c-1.51,1.53-2.25,3.39-2.25,5.53v68.78c0,2.17.74,4.01,2.25,5.53,1.51,1.53,3.32,2.31,5.49,2.31s3.92-.78,5.4-2.31c1.51-1.53,2.25-3.39,2.25-5.53v-34.4c0-3.67.69-7.12,2.03-10.35s3.19-6.01,5.52-8.4c2.34-2.39,5.08-4.28,8.21-5.65,3.16-1.39,6.51-2.09,10.11-2.09s7,.64,10.1,1.89c1.23.56,2.31.84,3.24.84,1.07,0,2.09-.2,3.02-.61s1.76-.97,2.45-1.7c.69-.72,1.23-1.56,1.64-2.53.41-.95.63-1.98.63-3.09,0-2.17-.69-3.92-2.06-5.28h.03,0ZM464.75,300.03c-2-4.98-5-9.54-9.03-13.65-8.15-8.23-17.9-12.38-29.21-12.38s-21.14,4.12-29.21,12.38c-8.07,8.23-12.08,18.19-12.08,29.87s4.04,21.61,12.08,29.87c8.07,8.23,17.79,12.38,29.21,12.38s21.03-4.12,29.21-12.38c8.07-8.15,12.08-18.1,12.08-29.87-.06-5.84-1.07-11.23-3.05-16.21h0ZM450.36,326.4v.06c-1.35,3.2-3.19,6.01-5.52,8.4-2.33,2.42-5.08,4.31-8.21,5.73s-6.51,2.11-10.1,2.11-7.03-.7-10.19-2.11-5.88-3.31-8.18-5.7c-2.31-2.39-4.14-5.2-5.49-8.4-1.35-3.23-2.03-6.65-2.03-10.26s.69-7.04,2.03-10.26c1.35-3.23,3.19-6.01,5.49-8.4,2.31-2.39,5.05-4.28,8.18-5.7,3.16-1.42,6.54-2.11,10.19-2.11s6.95.7,10.1,2.11,5.88,3.31,8.21,5.73,4.17,5.23,5.52,8.4c1.35,3.2,2.03,6.59,2.03,10.21s-.69,7.04-2.03,10.21h0ZM629.92,281.84c0-1.06-.22-2.06-.63-3-.41-.95-.96-1.81-1.65-2.53-.69-.72-1.51-1.31-2.44-1.7-.93-.39-1.95-.61-3.02-.61-1.54,0-2.91.39-4.12,1.2l-44.09,29.34v-58.85c0-2.22-.74-4.09-2.25-5.62-1.51-1.53-3.29-2.31-5.41-2.31s-3.98.78-5.49,2.31c-1.51,1.53-2.25,3.39-2.25,5.62v104.85c0,2.17.74,4.03,2.25,5.59s3.32,2.34,5.49,2.34,3.93-.78,5.41-2.34c1.51-1.56,2.25-3.42,2.25-5.59v-27.23l9.01-6.03,34.07,39.13c1.37,1.36,3.1,2.03,5.16,2.03,1.07,0,2.09-.2,3.02-.61.93-.39,1.76-.97,2.44-1.7.69-.72,1.24-1.56,1.65-2.53.41-.95.63-1.98.63-3,0-2.06-.71-3.9-2.14-5.51l-31.71-36.51,30.89-20.52c1.98-1.36,2.94-3.45,2.94-6.26v.06h0ZM499.37,297.5c2.36-2.39,5.11-4.28,8.27-5.65,3.16-1.39,6.51-2.09,10.1-2.09,3.24,0,6.23.56,9.01,1.67,2.74,1.11,5.38,2.75,7.88,4.89,1.48,1.19,3.16,1.81,5.02,1.81,2.22,0,4.04-.75,5.49-2.25s2.17-3.39,2.17-5.65-.88-4.34-2.66-5.95c-7.58-6.84-16.55-10.26-26.91-10.26-11.4,0-21.14,4.12-29.21,12.38-8.07,8.23-12.08,18.19-12.08,29.87s4.04,21.61,12.08,29.87c8.07,8.23,17.79,12.38,29.21,12.38,10.32,0,19.3-3.42,26.91-10.26,1.62-1.67,2.45-3.59,2.45-5.81s-.72-4.14-2.17-5.62c-1.46-1.47-3.29-2.22-5.49-2.22-1.87.06-3.49.61-4.86,1.67-2.47,2.17-5.05,3.78-7.82,4.87-2.74,1.08-5.74,1.61-9.01,1.61-3.6,0-6.95-.7-10.1-2.09s-5.9-3.28-8.27-5.64c-2.36-2.36-4.23-5.2-5.57-8.4-1.35-3.23-2.03-6.67-2.03-10.35s.69-7.12,2.03-10.35c1.35-3.23,3.21-6.01,5.57-8.4v-.03h0Z"/>
</svg>